<mxfile host="app.diagrams.net" modified="2023-11-07T17:56:25.056Z" agent="Mozilla/5.0 (Windows NT 10.0; Win64; x64) AppleWebKit/537.36 (KHTML, like Gecko) Chrome/119.0.0.0 Safari/537.36 Edg/119.0.0.0" etag="Pn8b_gGrdV2QhoCGNx7r" version="22.0.8" type="google">
  <diagram id="yU8RPIWkAb0Mecu8rdLN" name="Diagrama Triki">
    <mxGraphModel grid="1" page="1" gridSize="10" guides="1" tooltips="1" connect="1" arrows="1" fold="1" pageScale="1" pageWidth="1400" pageHeight="850" math="0" shadow="0">
      <root>
        <mxCell id="0" />
        <mxCell id="1" parent="0" />
        <mxCell id="m0ROhFoKZcEWSHcQG8KG-1" value="Start" style="ellipse;whiteSpace=wrap;html=1;fillColor=#d5e8d4;strokeColor=#82b366;gradientColor=#97d077;rounded=0;" vertex="1" parent="1">
          <mxGeometry x="197.5" y="20" width="80" height="50" as="geometry" />
        </mxCell>
        <mxCell id="m0ROhFoKZcEWSHcQG8KG-2" value="" style="edgeStyle=orthogonalEdgeStyle;rounded=0;orthogonalLoop=1;jettySize=auto;html=1;entryX=0.5;entryY=0;entryDx=0;entryDy=0;" edge="1" parent="1" source="m0ROhFoKZcEWSHcQG8KG-4" target="m0ROhFoKZcEWSHcQG8KG-50">
          <mxGeometry relative="1" as="geometry" />
        </mxCell>
        <mxCell id="m0ROhFoKZcEWSHcQG8KG-3" value="Si" style="edgeLabel;html=1;align=center;verticalAlign=middle;resizable=0;points=[];rounded=0;" connectable="0" vertex="1" parent="m0ROhFoKZcEWSHcQG8KG-2">
          <mxGeometry x="-0.2267" y="2" relative="1" as="geometry">
            <mxPoint as="offset" />
          </mxGeometry>
        </mxCell>
        <mxCell id="m0ROhFoKZcEWSHcQG8KG-4" value="Quedan &lt;br&gt;casillas &lt;br&gt;vacías?" style="rhombus;whiteSpace=wrap;html=1;fillColor=#dae8fc;strokeColor=#6c8ebf;gradientColor=#7ea6e0;rounded=0;" vertex="1" parent="1">
          <mxGeometry x="192.5" y="140" width="90" height="80" as="geometry" />
        </mxCell>
        <mxCell id="m0ROhFoKZcEWSHcQG8KG-11" value="Obtener posibles movimientos" style="rounded=0;whiteSpace=wrap;html=1;fillColor=#e6d0de;strokeColor=#996185;gradientColor=#d5739d;" vertex="1" parent="1">
          <mxGeometry x="163.75" y="390" width="147.5" height="30" as="geometry" />
        </mxCell>
        <mxCell id="m0ROhFoKZcEWSHcQG8KG-22" value="" style="endArrow=classic;html=1;rounded=0;edgeStyle=orthogonalEdgeStyle;entryX=0;entryY=0.5;entryDx=0;entryDy=0;exitX=0;exitY=0.5;exitDx=0;exitDy=0;" edge="1" parent="1" source="m0ROhFoKZcEWSHcQG8KG-25" target="m0ROhFoKZcEWSHcQG8KG-4">
          <mxGeometry width="50" height="50" relative="1" as="geometry">
            <mxPoint x="160" y="670" as="sourcePoint" />
            <mxPoint x="40" y="200" as="targetPoint" />
            <Array as="points">
              <mxPoint x="90" y="560" />
              <mxPoint x="90" y="180" />
            </Array>
          </mxGeometry>
        </mxCell>
        <mxCell id="m0ROhFoKZcEWSHcQG8KG-23" value="El nivel de profundidad es impar?" style="rhombus;whiteSpace=wrap;html=1;fillColor=#dae8fc;strokeColor=#6c8ebf;gradientColor=#7ea6e0;rounded=0;" vertex="1" parent="1">
          <mxGeometry x="187.5" y="440" width="100" height="80" as="geometry" />
        </mxCell>
        <mxCell id="m0ROhFoKZcEWSHcQG8KG-24" value="" style="endArrow=classic;html=1;rounded=0;exitX=1;exitY=0.5;exitDx=0;exitDy=0;edgeStyle=orthogonalEdgeStyle;entryX=0;entryY=0.5;entryDx=0;entryDy=0;" edge="1" parent="1" source="m0ROhFoKZcEWSHcQG8KG-4" target="wtVBjeLdOrxB5b5wzoTR-10">
          <mxGeometry width="50" height="50" relative="1" as="geometry">
            <mxPoint x="350" y="230" as="sourcePoint" />
            <mxPoint x="580" y="180" as="targetPoint" />
          </mxGeometry>
        </mxCell>
        <mxCell id="wtVBjeLdOrxB5b5wzoTR-3" value="No" style="edgeLabel;html=1;align=center;verticalAlign=middle;resizable=0;points=[];" connectable="0" vertex="1" parent="m0ROhFoKZcEWSHcQG8KG-24">
          <mxGeometry x="-0.7683" y="-1" relative="1" as="geometry">
            <mxPoint as="offset" />
          </mxGeometry>
        </mxCell>
        <mxCell id="m0ROhFoKZcEWSHcQG8KG-25" value="Juega el PC" style="rounded=0;whiteSpace=wrap;html=1;fillColor=#e6d0de;strokeColor=#996185;gradientColor=#d5739d;" vertex="1" parent="1">
          <mxGeometry x="102.5" y="540" width="120" height="40" as="geometry" />
        </mxCell>
        <mxCell id="m0ROhFoKZcEWSHcQG8KG-26" value="Simular jugadas del usuario" style="rounded=0;whiteSpace=wrap;html=1;fillColor=#e6d0de;strokeColor=#996185;gradientColor=#d5739d;" vertex="1" parent="1">
          <mxGeometry x="252.5" y="540" width="120" height="40" as="geometry" />
        </mxCell>
        <mxCell id="m0ROhFoKZcEWSHcQG8KG-27" value="" style="endArrow=classic;html=1;rounded=0;exitX=0;exitY=0.5;exitDx=0;exitDy=0;entryX=0.5;entryY=0;entryDx=0;entryDy=0;edgeStyle=orthogonalEdgeStyle;" edge="1" parent="1" source="m0ROhFoKZcEWSHcQG8KG-23" target="m0ROhFoKZcEWSHcQG8KG-25">
          <mxGeometry width="50" height="50" relative="1" as="geometry">
            <mxPoint x="112.5" y="530" as="sourcePoint" />
            <mxPoint x="162.5" y="480" as="targetPoint" />
          </mxGeometry>
        </mxCell>
        <mxCell id="m0ROhFoKZcEWSHcQG8KG-28" value="Si" style="edgeLabel;html=1;align=center;verticalAlign=middle;resizable=0;points=[];rounded=0;" connectable="0" vertex="1" parent="m0ROhFoKZcEWSHcQG8KG-27">
          <mxGeometry x="-0.7712" y="-3" relative="1" as="geometry">
            <mxPoint y="3" as="offset" />
          </mxGeometry>
        </mxCell>
        <mxCell id="m0ROhFoKZcEWSHcQG8KG-29" value="" style="endArrow=classic;html=1;rounded=0;exitX=1;exitY=0.5;exitDx=0;exitDy=0;entryX=0.5;entryY=0;entryDx=0;entryDy=0;edgeStyle=orthogonalEdgeStyle;" edge="1" parent="1" source="m0ROhFoKZcEWSHcQG8KG-23" target="m0ROhFoKZcEWSHcQG8KG-26">
          <mxGeometry width="50" height="50" relative="1" as="geometry">
            <mxPoint x="322.5" y="470" as="sourcePoint" />
            <mxPoint x="262.5" y="548" as="targetPoint" />
          </mxGeometry>
        </mxCell>
        <mxCell id="m0ROhFoKZcEWSHcQG8KG-30" value="No" style="edgeLabel;html=1;align=center;verticalAlign=middle;resizable=0;points=[];rounded=0;" connectable="0" vertex="1" parent="m0ROhFoKZcEWSHcQG8KG-29">
          <mxGeometry x="-0.6609" y="-3" relative="1" as="geometry">
            <mxPoint y="-3" as="offset" />
          </mxGeometry>
        </mxCell>
        <mxCell id="m0ROhFoKZcEWSHcQG8KG-31" value="" style="edgeStyle=orthogonalEdgeStyle;rounded=0;orthogonalLoop=1;jettySize=auto;html=1;entryX=0;entryY=0.5;entryDx=0;entryDy=0;" edge="1" parent="1" source="m0ROhFoKZcEWSHcQG8KG-35" target="m0ROhFoKZcEWSHcQG8KG-38">
          <mxGeometry relative="1" as="geometry" />
        </mxCell>
        <mxCell id="m0ROhFoKZcEWSHcQG8KG-32" value="Si" style="edgeLabel;html=1;align=center;verticalAlign=middle;resizable=0;points=[];rounded=0;" connectable="0" vertex="1" parent="m0ROhFoKZcEWSHcQG8KG-31">
          <mxGeometry x="0.2674" relative="1" as="geometry">
            <mxPoint x="-22" as="offset" />
          </mxGeometry>
        </mxCell>
        <mxCell id="m0ROhFoKZcEWSHcQG8KG-33" value="" style="edgeStyle=orthogonalEdgeStyle;rounded=0;orthogonalLoop=1;jettySize=auto;html=1;" edge="1" parent="1" source="m0ROhFoKZcEWSHcQG8KG-35" target="m0ROhFoKZcEWSHcQG8KG-43">
          <mxGeometry relative="1" as="geometry" />
        </mxCell>
        <mxCell id="m0ROhFoKZcEWSHcQG8KG-34" value="No" style="edgeLabel;html=1;align=center;verticalAlign=middle;resizable=0;points=[];rounded=0;" connectable="0" vertex="1" parent="m0ROhFoKZcEWSHcQG8KG-33">
          <mxGeometry x="-0.22" y="1" relative="1" as="geometry">
            <mxPoint as="offset" />
          </mxGeometry>
        </mxCell>
        <mxCell id="m0ROhFoKZcEWSHcQG8KG-35" value="Gana el PC?" style="rhombus;whiteSpace=wrap;html=1;fillColor=#dae8fc;strokeColor=#6c8ebf;gradientColor=#7ea6e0;rounded=0;" vertex="1" parent="1">
          <mxGeometry x="416.57" y="217.5" width="80.63" height="67.5" as="geometry" />
        </mxCell>
        <mxCell id="m0ROhFoKZcEWSHcQG8KG-37" value="" style="endArrow=classic;html=1;rounded=0;edgeStyle=orthogonalEdgeStyle;exitX=0.5;exitY=1;exitDx=0;exitDy=0;entryX=0;entryY=0;entryDx=0;entryDy=0;" edge="1" parent="1" source="m0ROhFoKZcEWSHcQG8KG-26" target="m0ROhFoKZcEWSHcQG8KG-4">
          <mxGeometry width="50" height="50" relative="1" as="geometry">
            <mxPoint x="470" y="340" as="sourcePoint" />
            <mxPoint x="250" y="610" as="targetPoint" />
            <Array as="points">
              <mxPoint x="313" y="590" />
              <mxPoint x="70" y="590" />
              <mxPoint x="70" y="160" />
            </Array>
          </mxGeometry>
        </mxCell>
        <mxCell id="m0ROhFoKZcEWSHcQG8KG-38" value="Asignar +1 al nodo&lt;br&gt;y retorno la puntuación &lt;br&gt;al nodo padre" style="shape=parallelogram;html=1;strokeWidth=2;perimeter=parallelogramPerimeter;whiteSpace=wrap;rounded=0;arcSize=12;size=0.23;fillColor=#fff2cc;gradientColor=#ffd966;strokeColor=#d6b656;" vertex="1" parent="1">
          <mxGeometry x="560" y="224.38" width="168.43" height="53.75" as="geometry" />
        </mxCell>
        <mxCell id="m0ROhFoKZcEWSHcQG8KG-39" value="" style="edgeStyle=orthogonalEdgeStyle;rounded=0;orthogonalLoop=1;jettySize=auto;html=1;entryX=0;entryY=0.5;entryDx=0;entryDy=0;" edge="1" parent="1" source="m0ROhFoKZcEWSHcQG8KG-43" target="wtVBjeLdOrxB5b5wzoTR-15">
          <mxGeometry relative="1" as="geometry">
            <mxPoint x="543.8200000000002" y="365" as="targetPoint" />
          </mxGeometry>
        </mxCell>
        <mxCell id="m0ROhFoKZcEWSHcQG8KG-40" value="Si" style="edgeLabel;html=1;align=center;verticalAlign=middle;resizable=0;points=[];rounded=0;" connectable="0" vertex="1" parent="m0ROhFoKZcEWSHcQG8KG-39">
          <mxGeometry x="-0.0167" y="2" relative="1" as="geometry">
            <mxPoint x="-4" y="2" as="offset" />
          </mxGeometry>
        </mxCell>
        <mxCell id="m0ROhFoKZcEWSHcQG8KG-41" value="" style="edgeStyle=orthogonalEdgeStyle;rounded=0;orthogonalLoop=1;jettySize=auto;html=1;" edge="1" parent="1" source="m0ROhFoKZcEWSHcQG8KG-43" target="m0ROhFoKZcEWSHcQG8KG-46">
          <mxGeometry relative="1" as="geometry" />
        </mxCell>
        <mxCell id="m0ROhFoKZcEWSHcQG8KG-42" value="No" style="edgeLabel;html=1;align=center;verticalAlign=middle;resizable=0;points=[];rounded=0;" connectable="0" vertex="1" parent="m0ROhFoKZcEWSHcQG8KG-41">
          <mxGeometry x="-0.5253" relative="1" as="geometry">
            <mxPoint y="6" as="offset" />
          </mxGeometry>
        </mxCell>
        <mxCell id="m0ROhFoKZcEWSHcQG8KG-43" value="Gana el usuario?" style="rhombus;whiteSpace=wrap;html=1;fillColor=#dae8fc;strokeColor=#6c8ebf;gradientColor=#7ea6e0;rounded=0;" vertex="1" parent="1">
          <mxGeometry x="421.57" y="330" width="73.75" height="70" as="geometry" />
        </mxCell>
        <mxCell id="m0ROhFoKZcEWSHcQG8KG-45" value="" style="edgeStyle=orthogonalEdgeStyle;rounded=0;orthogonalLoop=1;jettySize=auto;html=1;entryX=0.5;entryY=0;entryDx=0;entryDy=0;" edge="1" parent="1" source="m0ROhFoKZcEWSHcQG8KG-46" target="wtVBjeLdOrxB5b5wzoTR-19">
          <mxGeometry relative="1" as="geometry">
            <mxPoint x="459" y="530" as="targetPoint" />
          </mxGeometry>
        </mxCell>
        <mxCell id="m0ROhFoKZcEWSHcQG8KG-46" value="Asignar 0 al &lt;br&gt;nodo (Empate)" style="shape=parallelogram;html=1;strokeWidth=2;perimeter=parallelogramPerimeter;whiteSpace=wrap;rounded=0;arcSize=12;size=0.23;fillColor=#fff2cc;gradientColor=#ffd966;strokeColor=#d6b656;" vertex="1" parent="1">
          <mxGeometry x="390" y="440" width="136.88" height="30" as="geometry" />
        </mxCell>
        <mxCell id="m0ROhFoKZcEWSHcQG8KG-47" value="Fin" style="ellipse;whiteSpace=wrap;html=1;fillColor=#d5e8d4;strokeColor=#82b366;gradientColor=#97d077;rounded=0;" vertex="1" parent="1">
          <mxGeometry x="423.45" y="710" width="70" height="50" as="geometry" />
        </mxCell>
        <mxCell id="m0ROhFoKZcEWSHcQG8KG-48" value="" style="edgeStyle=orthogonalEdgeStyle;rounded=0;orthogonalLoop=1;jettySize=auto;html=1;entryX=0.5;entryY=0;entryDx=0;entryDy=0;exitX=0.5;exitY=1;exitDx=0;exitDy=0;" edge="1" parent="1" source="m0ROhFoKZcEWSHcQG8KG-1" target="m0ROhFoKZcEWSHcQG8KG-49">
          <mxGeometry relative="1" as="geometry">
            <mxPoint x="247.5" y="50" as="sourcePoint" />
            <mxPoint x="237.5" y="10" as="targetPoint" />
          </mxGeometry>
        </mxCell>
        <mxCell id="m0ROhFoKZcEWSHcQG8KG-49" value="Tomar tablero actual" style="shape=parallelogram;html=1;strokeWidth=2;perimeter=parallelogramPerimeter;whiteSpace=wrap;rounded=0;arcSize=12;size=0.23;fillColor=#fff2cc;gradientColor=#ffd966;strokeColor=#d6b656;" vertex="1" parent="1">
          <mxGeometry x="156.25" y="90" width="162.5" height="30" as="geometry" />
        </mxCell>
        <mxCell id="m0ROhFoKZcEWSHcQG8KG-50" value="Contar las casillas vacías del tablero" style="rounded=0;whiteSpace=wrap;html=1;fillColor=#e6d0de;strokeColor=#996185;gradientColor=#d5739d;" vertex="1" parent="1">
          <mxGeometry x="162.5" y="257.5" width="150" height="40" as="geometry" />
        </mxCell>
        <mxCell id="wtVBjeLdOrxB5b5wzoTR-2" value="" style="edgeStyle=orthogonalEdgeStyle;rounded=0;orthogonalLoop=1;jettySize=auto;html=1;exitX=0.5;exitY=1;exitDx=0;exitDy=0;entryX=0.5;entryY=0;entryDx=0;entryDy=0;" edge="1" parent="1" source="m0ROhFoKZcEWSHcQG8KG-49" target="m0ROhFoKZcEWSHcQG8KG-4">
          <mxGeometry relative="1" as="geometry">
            <mxPoint x="250" y="40" as="sourcePoint" />
            <mxPoint x="540" y="90" as="targetPoint" />
          </mxGeometry>
        </mxCell>
        <mxCell id="wtVBjeLdOrxB5b5wzoTR-5" value="Crear la cantidad de nodos según las casillas vacías" style="rounded=0;whiteSpace=wrap;html=1;fillColor=#e6d0de;strokeColor=#996185;gradientColor=#d5739d;" vertex="1" parent="1">
          <mxGeometry x="162.5" y="320" width="150" height="40" as="geometry" />
        </mxCell>
        <mxCell id="wtVBjeLdOrxB5b5wzoTR-6" value="" style="endArrow=classic;html=1;rounded=0;exitX=0.5;exitY=1;exitDx=0;exitDy=0;entryX=0.5;entryY=0;entryDx=0;entryDy=0;edgeStyle=orthogonalEdgeStyle;" edge="1" parent="1" source="m0ROhFoKZcEWSHcQG8KG-50" target="wtVBjeLdOrxB5b5wzoTR-5">
          <mxGeometry width="50" height="50" relative="1" as="geometry">
            <mxPoint x="282.5" y="235" as="sourcePoint" />
            <mxPoint x="537.5" y="245" as="targetPoint" />
          </mxGeometry>
        </mxCell>
        <mxCell id="wtVBjeLdOrxB5b5wzoTR-8" value="" style="endArrow=classic;html=1;rounded=0;entryX=0.5;entryY=0;entryDx=0;entryDy=0;edgeStyle=orthogonalEdgeStyle;exitX=0.5;exitY=1;exitDx=0;exitDy=0;" edge="1" parent="1" source="m0ROhFoKZcEWSHcQG8KG-11" target="m0ROhFoKZcEWSHcQG8KG-23">
          <mxGeometry width="50" height="50" relative="1" as="geometry">
            <mxPoint x="310" y="410" as="sourcePoint" />
            <mxPoint x="447.5" y="490" as="targetPoint" />
          </mxGeometry>
        </mxCell>
        <mxCell id="wtVBjeLdOrxB5b5wzoTR-10" value="Chequear cada nodo y asignar puntuación" style="rounded=0;whiteSpace=wrap;html=1;fillColor=#e6d0de;strokeColor=#996185;gradientColor=#d5739d;" vertex="1" parent="1">
          <mxGeometry x="396.57" y="160" width="120" height="40" as="geometry" />
        </mxCell>
        <mxCell id="wtVBjeLdOrxB5b5wzoTR-11" value="" style="endArrow=classic;html=1;rounded=0;edgeStyle=orthogonalEdgeStyle;exitX=0.5;exitY=1;exitDx=0;exitDy=0;entryX=0.5;entryY=0;entryDx=0;entryDy=0;" edge="1" parent="1" source="wtVBjeLdOrxB5b5wzoTR-10" target="m0ROhFoKZcEWSHcQG8KG-35">
          <mxGeometry width="50" height="50" relative="1" as="geometry">
            <mxPoint x="299.57" y="540" as="sourcePoint" />
            <mxPoint x="256.57" y="640" as="targetPoint" />
          </mxGeometry>
        </mxCell>
        <mxCell id="wtVBjeLdOrxB5b5wzoTR-13" value="" style="endArrow=classic;html=1;rounded=0;edgeStyle=orthogonalEdgeStyle;exitX=0.5;exitY=1;exitDx=0;exitDy=0;entryX=0.5;entryY=0;entryDx=0;entryDy=0;" edge="1" parent="1" source="wtVBjeLdOrxB5b5wzoTR-5" target="m0ROhFoKZcEWSHcQG8KG-11">
          <mxGeometry width="50" height="50" relative="1" as="geometry">
            <mxPoint x="173" y="590" as="sourcePoint" />
            <mxPoint x="130" y="380" as="targetPoint" />
          </mxGeometry>
        </mxCell>
        <mxCell id="wtVBjeLdOrxB5b5wzoTR-14" value="El nivel de profundidad es impar?" style="rhombus;whiteSpace=wrap;html=1;fillColor=#dae8fc;strokeColor=#6c8ebf;gradientColor=#7ea6e0;rounded=0;" vertex="1" parent="1">
          <mxGeometry x="548.45" y="489.99" width="100" height="80" as="geometry" />
        </mxCell>
        <mxCell id="wtVBjeLdOrxB5b5wzoTR-15" value="Asignar -1 al nodo&lt;br&gt;y retorno la puntuación &lt;br&gt;al nodo padre" style="shape=parallelogram;html=1;strokeWidth=2;perimeter=parallelogramPerimeter;whiteSpace=wrap;rounded=0;arcSize=12;size=0.23;fillColor=#fff2cc;gradientColor=#ffd966;strokeColor=#d6b656;" vertex="1" parent="1">
          <mxGeometry x="550" y="338.13" width="168.43" height="53.75" as="geometry" />
        </mxCell>
        <mxCell id="wtVBjeLdOrxB5b5wzoTR-16" value="Selecciono el nodo &lt;br&gt;con mayor puntaje" style="shape=parallelogram;html=1;strokeWidth=2;perimeter=parallelogramPerimeter;whiteSpace=wrap;rounded=0;arcSize=12;size=0.23;fillColor=#fff2cc;gradientColor=#ffd966;strokeColor=#d6b656;" vertex="1" parent="1">
          <mxGeometry x="690" y="503.13" width="168.43" height="53.75" as="geometry" />
        </mxCell>
        <mxCell id="wtVBjeLdOrxB5b5wzoTR-17" value="" style="edgeStyle=orthogonalEdgeStyle;rounded=0;orthogonalLoop=1;jettySize=auto;html=1;entryX=0;entryY=0.5;entryDx=0;entryDy=0;exitX=1;exitY=0.5;exitDx=0;exitDy=0;" edge="1" parent="1" source="wtVBjeLdOrxB5b5wzoTR-14" target="wtVBjeLdOrxB5b5wzoTR-16">
          <mxGeometry relative="1" as="geometry">
            <mxPoint x="806.55" y="445" as="sourcePoint" />
            <mxPoint x="880.55" y="445" as="targetPoint" />
          </mxGeometry>
        </mxCell>
        <mxCell id="wtVBjeLdOrxB5b5wzoTR-18" value="Si" style="edgeLabel;html=1;align=center;verticalAlign=middle;resizable=0;points=[];rounded=0;" connectable="0" vertex="1" parent="wtVBjeLdOrxB5b5wzoTR-17">
          <mxGeometry x="-0.0167" y="2" relative="1" as="geometry">
            <mxPoint x="-18" y="2" as="offset" />
          </mxGeometry>
        </mxCell>
        <mxCell id="wtVBjeLdOrxB5b5wzoTR-19" value="Es primer &lt;br&gt;nivel?" style="rhombus;whiteSpace=wrap;html=1;fillColor=#dae8fc;strokeColor=#6c8ebf;gradientColor=#7ea6e0;rounded=0;" vertex="1" parent="1">
          <mxGeometry x="408.45" y="490" width="100" height="80" as="geometry" />
        </mxCell>
        <mxCell id="wtVBjeLdOrxB5b5wzoTR-20" value="Selecciono el primer &lt;br&gt;nodo con mayor &lt;br&gt;puntaje y realizo las &lt;br&gt;respectivas jugadas" style="shape=parallelogram;html=1;strokeWidth=2;perimeter=parallelogramPerimeter;whiteSpace=wrap;rounded=0;arcSize=12;size=0.23;fillColor=#fff2cc;gradientColor=#ffd966;strokeColor=#d6b656;" vertex="1" parent="1">
          <mxGeometry x="368.45" y="620.0000000000001" width="180" height="66.88" as="geometry" />
        </mxCell>
        <mxCell id="wtVBjeLdOrxB5b5wzoTR-21" value="" style="edgeStyle=orthogonalEdgeStyle;rounded=0;orthogonalLoop=1;jettySize=auto;html=1;entryX=0.5;entryY=0;entryDx=0;entryDy=0;exitX=0.5;exitY=1;exitDx=0;exitDy=0;" edge="1" parent="1" source="wtVBjeLdOrxB5b5wzoTR-19" target="wtVBjeLdOrxB5b5wzoTR-20">
          <mxGeometry relative="1" as="geometry">
            <mxPoint x="518" y="630" as="sourcePoint" />
            <mxPoint x="458.4499999999998" y="613.1300000000003" as="targetPoint" />
          </mxGeometry>
        </mxCell>
        <mxCell id="wtVBjeLdOrxB5b5wzoTR-22" value="Si" style="edgeLabel;html=1;align=center;verticalAlign=middle;resizable=0;points=[];rounded=0;" connectable="0" vertex="1" parent="wtVBjeLdOrxB5b5wzoTR-21">
          <mxGeometry x="-0.0167" y="2" relative="1" as="geometry">
            <mxPoint x="-2" y="-11" as="offset" />
          </mxGeometry>
        </mxCell>
        <mxCell id="wtVBjeLdOrxB5b5wzoTR-23" value="" style="edgeStyle=orthogonalEdgeStyle;rounded=0;orthogonalLoop=1;jettySize=auto;html=1;exitX=1;exitY=0.5;exitDx=0;exitDy=0;entryX=0;entryY=0.5;entryDx=0;entryDy=0;" edge="1" parent="1" source="wtVBjeLdOrxB5b5wzoTR-19" target="wtVBjeLdOrxB5b5wzoTR-14">
          <mxGeometry relative="1" as="geometry">
            <mxPoint x="526.88" y="710" as="sourcePoint" />
            <mxPoint x="459" y="600" as="targetPoint" />
          </mxGeometry>
        </mxCell>
        <mxCell id="wtVBjeLdOrxB5b5wzoTR-24" value="No" style="edgeLabel;html=1;align=center;verticalAlign=middle;resizable=0;points=[];rounded=0;" connectable="0" vertex="1" parent="wtVBjeLdOrxB5b5wzoTR-23">
          <mxGeometry x="-0.22" y="1" relative="1" as="geometry">
            <mxPoint as="offset" />
          </mxGeometry>
        </mxCell>
        <mxCell id="wtVBjeLdOrxB5b5wzoTR-25" value="Selecciono el nodo &lt;br&gt;con menor puntaje" style="shape=parallelogram;html=1;strokeWidth=2;perimeter=parallelogramPerimeter;whiteSpace=wrap;rounded=0;arcSize=12;size=0.23;fillColor=#fff2cc;gradientColor=#ffd966;strokeColor=#d6b656;" vertex="1" parent="1">
          <mxGeometry x="550" y="620" width="168.43" height="53.75" as="geometry" />
        </mxCell>
        <mxCell id="wtVBjeLdOrxB5b5wzoTR-26" value="" style="edgeStyle=orthogonalEdgeStyle;rounded=0;orthogonalLoop=1;jettySize=auto;html=1;exitX=0.5;exitY=1;exitDx=0;exitDy=0;entryX=0.5;entryY=0;entryDx=0;entryDy=0;" edge="1" parent="1" source="wtVBjeLdOrxB5b5wzoTR-14" target="wtVBjeLdOrxB5b5wzoTR-25">
          <mxGeometry relative="1" as="geometry">
            <mxPoint x="769.55" y="570" as="sourcePoint" />
            <mxPoint x="769.55" y="610" as="targetPoint" />
            <Array as="points">
              <mxPoint x="598" y="603" />
              <mxPoint x="634" y="603" />
            </Array>
          </mxGeometry>
        </mxCell>
        <mxCell id="wtVBjeLdOrxB5b5wzoTR-27" value="No" style="edgeLabel;html=1;align=center;verticalAlign=middle;resizable=0;points=[];rounded=0;" connectable="0" vertex="1" parent="wtVBjeLdOrxB5b5wzoTR-26">
          <mxGeometry x="-0.22" y="1" relative="1" as="geometry">
            <mxPoint y="-22" as="offset" />
          </mxGeometry>
        </mxCell>
        <mxCell id="wtVBjeLdOrxB5b5wzoTR-28" value="" style="endArrow=classic;html=1;rounded=0;edgeStyle=orthogonalEdgeStyle;exitX=0.5;exitY=1;exitDx=0;exitDy=0;entryX=0.5;entryY=0;entryDx=0;entryDy=0;" edge="1" parent="1" source="wtVBjeLdOrxB5b5wzoTR-20" target="m0ROhFoKZcEWSHcQG8KG-47">
          <mxGeometry width="50" height="50" relative="1" as="geometry">
            <mxPoint x="458.4499999999998" y="680.0100000000002" as="sourcePoint" />
            <mxPoint x="548.45" y="730" as="targetPoint" />
          </mxGeometry>
        </mxCell>
        <mxCell id="B7W2kRiFvq1e5BRgjqXh-3" value="&lt;h1&gt;Integrantes:&lt;/h1&gt;&lt;div style=&quot;text-align: center;&quot;&gt;Grupo 11&lt;/div&gt;&lt;p&gt;* Yeison Idarraga Chavarria&lt;br&gt;&lt;span style=&quot;background-color: initial;&quot;&gt;* Juan Camilo Agudelo Aquite&lt;/span&gt;&lt;/p&gt;" style="text;html=1;strokeColor=default;fillColor=none;spacing=5;spacingTop=-20;whiteSpace=wrap;overflow=hidden;rounded=0;" vertex="1" parent="1">
          <mxGeometry x="396.57" y="20" width="171.55" height="110" as="geometry" />
        </mxCell>
      </root>
    </mxGraphModel>
  </diagram>
</mxfile>
